%
M48
M72
T01C0.0276
T02C0.0320
T03C0.0400
%
T01
X5495Y11885
X5495Y12885
X5495Y14444
X5495Y15444
X5495Y17003
X5495Y18003
X7786Y17995
X7786Y16995
X7857Y15444
X7857Y14444
X7857Y12885
X7857Y11885
T02
X10097Y11444
X10097Y12444
X10097Y13444
X10097Y14444
X10097Y15444
X10097Y16444
X10097Y17444
X10097Y18444
X13097Y18444
X13097Y17444
X13097Y16444
X13097Y15444
X13097Y14444
X13097Y13444
X13097Y12444
X13097Y11444
T03
X1755Y1558
X1755Y2558
X3322Y2755
X4322Y2755
X5322Y2755
X7214Y2471
X7114Y1471
X7114Y3471
X7214Y4471
X7114Y5471
X7214Y6471
X7114Y7471
X7214Y8471
X3326Y11023
X2326Y11023
X1326Y11023
X14747Y14353
X14747Y16093
X14747Y17093
X14747Y18093
M30
