G75*
%MOIN*%
%OFA0B0*%
%FSLAX24Y24*%
%IPPOS*%
%LPD*%
%AMOC8*
5,1,8,0,0,1.08239X$1,22.5*
%
%ADD10C,0.0000*%
D10*
X000180Y000180D02*
X000180Y019865D01*
X015928Y019865D01*
X015928Y000180D01*
X000180Y000180D01*
X003672Y008655D02*
X003674Y008705D01*
X003680Y008755D01*
X003690Y008805D01*
X003703Y008853D01*
X003720Y008901D01*
X003741Y008947D01*
X003765Y008991D01*
X003793Y009033D01*
X003824Y009073D01*
X003858Y009110D01*
X003895Y009145D01*
X003934Y009176D01*
X003975Y009205D01*
X004019Y009230D01*
X004065Y009252D01*
X004112Y009270D01*
X004160Y009284D01*
X004209Y009295D01*
X004259Y009302D01*
X004309Y009305D01*
X004360Y009304D01*
X004410Y009299D01*
X004460Y009290D01*
X004508Y009278D01*
X004556Y009261D01*
X004602Y009241D01*
X004647Y009218D01*
X004690Y009191D01*
X004730Y009161D01*
X004768Y009128D01*
X004803Y009092D01*
X004836Y009053D01*
X004865Y009012D01*
X004891Y008969D01*
X004914Y008924D01*
X004933Y008877D01*
X004948Y008829D01*
X004960Y008780D01*
X004968Y008730D01*
X004972Y008680D01*
X004972Y008630D01*
X004968Y008580D01*
X004960Y008530D01*
X004948Y008481D01*
X004933Y008433D01*
X004914Y008386D01*
X004891Y008341D01*
X004865Y008298D01*
X004836Y008257D01*
X004803Y008218D01*
X004768Y008182D01*
X004730Y008149D01*
X004690Y008119D01*
X004647Y008092D01*
X004602Y008069D01*
X004556Y008049D01*
X004508Y008032D01*
X004460Y008020D01*
X004410Y008011D01*
X004360Y008006D01*
X004309Y008005D01*
X004259Y008008D01*
X004209Y008015D01*
X004160Y008026D01*
X004112Y008040D01*
X004065Y008058D01*
X004019Y008080D01*
X003975Y008105D01*
X003934Y008134D01*
X003895Y008165D01*
X003858Y008200D01*
X003824Y008237D01*
X003793Y008277D01*
X003765Y008319D01*
X003741Y008363D01*
X003720Y008409D01*
X003703Y008457D01*
X003690Y008505D01*
X003680Y008555D01*
X003674Y008605D01*
X003672Y008655D01*
X001676Y016923D02*
X001678Y016973D01*
X001684Y017023D01*
X001694Y017073D01*
X001707Y017121D01*
X001724Y017169D01*
X001745Y017215D01*
X001769Y017259D01*
X001797Y017301D01*
X001828Y017341D01*
X001862Y017378D01*
X001899Y017413D01*
X001938Y017444D01*
X001979Y017473D01*
X002023Y017498D01*
X002069Y017520D01*
X002116Y017538D01*
X002164Y017552D01*
X002213Y017563D01*
X002263Y017570D01*
X002313Y017573D01*
X002364Y017572D01*
X002414Y017567D01*
X002464Y017558D01*
X002512Y017546D01*
X002560Y017529D01*
X002606Y017509D01*
X002651Y017486D01*
X002694Y017459D01*
X002734Y017429D01*
X002772Y017396D01*
X002807Y017360D01*
X002840Y017321D01*
X002869Y017280D01*
X002895Y017237D01*
X002918Y017192D01*
X002937Y017145D01*
X002952Y017097D01*
X002964Y017048D01*
X002972Y016998D01*
X002976Y016948D01*
X002976Y016898D01*
X002972Y016848D01*
X002964Y016798D01*
X002952Y016749D01*
X002937Y016701D01*
X002918Y016654D01*
X002895Y016609D01*
X002869Y016566D01*
X002840Y016525D01*
X002807Y016486D01*
X002772Y016450D01*
X002734Y016417D01*
X002694Y016387D01*
X002651Y016360D01*
X002606Y016337D01*
X002560Y016317D01*
X002512Y016300D01*
X002464Y016288D01*
X002414Y016279D01*
X002364Y016274D01*
X002313Y016273D01*
X002263Y016276D01*
X002213Y016283D01*
X002164Y016294D01*
X002116Y016308D01*
X002069Y016326D01*
X002023Y016348D01*
X001979Y016373D01*
X001938Y016402D01*
X001899Y016433D01*
X001862Y016468D01*
X001828Y016505D01*
X001797Y016545D01*
X001769Y016587D01*
X001745Y016631D01*
X001724Y016677D01*
X001707Y016725D01*
X001694Y016773D01*
X001684Y016823D01*
X001678Y016873D01*
X001676Y016923D01*
M02*
