G75*
%MOIN*%
%OFA0B0*%
%FSLAX24Y24*%
%IPPOS*%
%LPD*%
%AMOC8*
5,1,8,0,0,1.08239X$1,22.5*
%
%ADD10C,0.0600*%
%ADD11R,0.0730X0.0730*%
%ADD12C,0.0730*%
%ADD13C,0.0820*%
%ADD14C,0.0680*%
%ADD15C,0.1380*%
%ADD16R,0.0820X0.0820*%
D10*
X009837Y011444D02*
X010357Y011444D01*
X010357Y012444D02*
X009837Y012444D01*
X009837Y013444D02*
X010357Y013444D01*
X010357Y014444D02*
X009837Y014444D01*
X009837Y015444D02*
X010357Y015444D01*
X010357Y016444D02*
X009837Y016444D01*
X009837Y017444D02*
X010357Y017444D01*
X010357Y018444D02*
X009837Y018444D01*
X012837Y018444D02*
X013357Y018444D01*
X013357Y017444D02*
X012837Y017444D01*
X012837Y016444D02*
X013357Y016444D01*
X013357Y015444D02*
X012837Y015444D01*
X012837Y014444D02*
X013357Y014444D01*
X013357Y013444D02*
X012837Y013444D01*
X012837Y012444D02*
X013357Y012444D01*
X013357Y011444D02*
X012837Y011444D01*
D11*
X007857Y011885D03*
X005495Y012885D03*
X005495Y015444D03*
X005495Y017003D03*
X007786Y017995D03*
X007857Y015444D03*
D12*
X007857Y014444D03*
X007857Y012885D03*
X005495Y011885D03*
X005495Y014444D03*
X007786Y016995D03*
X005495Y018003D03*
D13*
X001755Y001558D03*
X001755Y002558D03*
X007114Y003471D03*
X007214Y002471D03*
X007214Y004471D03*
X007114Y005471D03*
X007214Y006471D03*
X007114Y007471D03*
X007214Y008471D03*
X014747Y014353D03*
X014747Y016093D03*
X014747Y017093D03*
X014747Y018093D03*
D14*
X003326Y011323D02*
X003326Y010723D01*
X002326Y010723D02*
X002326Y011323D01*
X001326Y011323D02*
X001326Y010723D01*
X003322Y003055D02*
X003322Y002455D01*
X004322Y002455D02*
X004322Y003055D01*
X005322Y003055D02*
X005322Y002455D01*
D15*
X004322Y008655D03*
X002326Y016923D03*
D16*
X007114Y001471D03*
M02*
